<svg xmlns="http://www.w3.org/2000/svg" viewBox="0 0 394.1 449.803"><g data-name="Layer 2"><g data-name="Layer 1"><path fill="#dae0e0" d="M90.95567,169.44836c-7.14284-31.84666-30.08708-35.13706-38.14951-63.59863C44.0243,74.84839,62.043,46.26379,63.8393,43.50468,85.88011,9.65,123.86241-8.6031,154.615,4.00346c17.06769,6.9966,23.74767,19.38479,61.61186,49.24531,28.6465,22.59131,51.98382,28.30959,58.70963,32.56341,34.27821,21.67965,41.85982,62.39741,33.71076,99.21869-2.268,10.24779-13.50784,59.73956-67.606,61.14124-16.75273.434-10.96036-3.23311-63.15662-12.37019C122.90962,224.17844,96.11317,192.44356,90.95567,169.44836Z"/><polygon fill="#9ce9ef" points="84.033 448.638 32.211 448.638 18.325 360.245 97.92 360.245 84.033 448.638"/><rect width="92.206" height="9.143" x="12.019" y="351.435" fill="#139da0" rx="4.572"/><polygon fill="#26b5bf" points="31.135 370.092 32.553 378.654 33.896 387.227 36.466 404.389 38.869 421.576 40.011 430.178 41.078 438.791 39.658 430.229 38.314 421.657 35.746 404.494 33.344 387.306 32.202 378.704 31.135 370.092"/><polygon fill="#26b5bf" points="84.045 370.092 83.111 378.702 82.102 387.302 79.967 404.488 77.664 421.652 76.454 430.227 75.167 438.791 76.1 430.181 77.109 421.58 79.245 404.395 81.549 387.231 82.759 378.656 84.045 370.092"/><polygon fill="#26b5bf" points="57.265 370.092 57.443 378.629 57.544 387.166 57.629 404.239 57.546 421.313 57.444 429.85 57.265 438.387 57.087 429.85 56.985 421.313 56.902 404.239 56.987 387.166 57.088 378.629 57.265 370.092"/><polygon fill="#26b5bf" points="28.294 380.766 35.751 380.589 43.208 380.487 58.122 380.402 73.036 380.486 80.494 380.587 87.951 380.766 80.494 380.944 73.036 381.046 58.122 381.129 43.208 381.045 35.751 380.943 28.294 380.766"/><path fill="#26b5bf" d="M33.26525 407.335c4.05408-.15027 8.10816-.22064 12.16224-.27893l12.16211-.0849 12.16223.08362c4.05407.05871 8.10815.12878 12.16211.28021-4.054.15137-8.108.22143-12.16211.28015l-12.16223.08362-12.16211-.0849C41.37341 407.55558 37.31933 407.48521 33.26525 407.335zM37.88159 433.79172c3.35864-.15026 6.71728-.22064 10.07593-.27893 3.35864-.05993 6.71728-.05444 10.076-.0849 3.35865.02851 6.71729.02564 10.07593.08362 3.35865.05872 6.71729.12885 10.07593.28021-3.35864.15137-6.71728.2215-10.07593.28016-3.35864.058-6.71728.05511-10.07593.08368-3.35876-.03046-6.7174-.025-10.076-.085C44.59887 434.01237 41.24023 433.94193 37.88159 433.79172z"/><polygon fill="#f6b98a" points="192.694 125.008 164.9 125.008 165.95 105.83 191.644 105.83 192.694 125.008"/><path fill="#e8a77c" d="M191.64432,105.82971H165.95008l-.147,1.88216a17.18722,17.18722,0,0,0,13.0389,5.53426,16.33258,16.33258,0,0,0,12.96123-5.38279Z"/><path fill="#f4f4f4" d="M119.839,251.31651l22.29745-12.82593s-35.14682-39.21072-7.18054-67.06133l86.54432,23.45314s12.25881,28.1718,22.38584,15.33207q.20837-.2642.4155-.5517c10.20391-14.16961,22.36043-28.52244,19.33705-49.04394l-16.25068-4.76392-6.04677,8.97816s-1.89786-39.92915-48.91363-48.97562c0,0-11.40168,17.68885-27.2607,0,0,0-40.91874,4.14591-60.57072,50.31928S98.04546,210.15136,119.839,251.31651Z"/><path fill="#2d1505" d="M192.7781,426.48216l1.56542,16.99023h52.40771s.91055-5.64932-3.84458-7.709l-5.47547.61246a10.71351,10.71351,0,0,1-10.9-5.952l-2.38552-5.04111Z"/><rect width="52.408" height="4.708" x="194.344" y="443.472" fill="#874106"/><path fill="#2d1505" d="M166.3235,426.1157l-2.10081,17.81476H111.815s-.91056-5.64933,3.84458-7.709l5.4247.60678a10.71087,10.71087,0,0,0,10.92763-6.01094l2.18817-4.70163Z"/><rect width="52.408" height="4.708" x="111.815" y="443.93" fill="#874106"/><path fill="#f6b98a" d="M157.12738,64.18l1.13377,11.48227s-8.3143,6.96265,1.0078,11.97087c0,0,.299,23.33282,19.573,23.57713,18.08706.22926,19.479-21.13409,19.227-24.43219,0,0,10.20391-4.76392.75584-11.36011l.88182-18.32277Z"/><path fill="#f6b98a" d="M157.12738,64.18l1.13377,11.48227s-8.3143,6.96265,1.0078,11.97087c0,0,.299,23.33282,19.573,23.57713,18.08706.22926,19.479-21.13409,19.227-24.43219,0,0,10.20391-4.76392.75584-11.36011l.88182-18.32277Z"/><path fill="#f27019" d="M139.11306,252.66018l-4.913,173.45552s25.88771,6.04651,32.12343,0L176.52742,296.757h3.82586L192.7781,426.48216s20.78575,4.39746,31.36759-1.09937l-5.66884-172.72261Z"/><path fill="#f6b98a" d="M249.58838,156.5l3.09048-8.70708s-2.64546-9.06977-.56689-13.10078c0,0-1.79513-8.15363-1.41721-12.00141,0,0,2.362-5.13037,7.275,10.902,0,0,.189-3.38971,1.60618-3.2981a5.55019,5.55019,0,0,0,1.49574-.12851,1.04055,1.04055,0,0,1,1.26877,1.0487l-1.3613,28.62436Z"/><path fill="#020202" d="M164.056 72.85278a9.14957 9.14957 0 012.429-1.26107 10.3577 10.3577 0 012.69812-.59468 7.30137 7.30137 0 012.797.27443 4.41914 4.41914 0 012.27978 1.58132 7.67269 7.67269 0 00-2.46106-.79529 11.33506 11.33506 0 00-2.53357-.03061A52.73027 52.73027 0 00164.056 72.85278zM183.708 72.16058a6.8981 6.8981 0 012.13929-1.01514 9.35505 9.35505 0 012.3518-.37431 7.93125 7.93125 0 012.37952.29592 5.67453 5.67453 0 012.11548 1.09353c-.79541-.11-1.52014-.25292-2.264-.30066a19.40766 19.40766 0 00-2.20593-.056C186.74682 71.83131 185.28112 72.01058 183.708 72.16058z"/><path fill="#e8a77c" d="M178.98217,91.265a2.29263,2.29263,0,0,1-.28515-.01758,2.51948,2.51948,0,0,1-1.84375-1.31445,4.32193,4.32193,0,0,1-.33008-3.65332,35.15743,35.15743,0,0,0,1.082-6.50391l1.03125.08008a35.37864,35.37864,0,0,1-1.14062,6.77149,3.28038,3.28038,0,0,0,.24218,2.77148,1.49257,1.49257,0,0,0,1.082.82227c.53614.06152,1.51465-.19239,3.10645-1.792l.73242.72852C181.25268,90.57258,180.04565,91.265,178.98217,91.265Z"/><path fill="#a03041" d="M174.25988,95.02332H183.708S179.92872,108.58216,174.25988,95.02332Z"/><polygon fill="#f4f4f4" points="168.675 396.311 169.35 387.752 135.287 387.752 135.044 396.311 168.675 396.311"/><polygon fill="#f4f4f4" points="167.069 416.669 167.744 408.111 134.71 408.111 134.468 416.669 167.069 416.669"/><polygon fill="#f4f4f4" points="222.911 387.752 189.069 387.752 189.888 396.311 223.191 396.311 222.911 387.752"/><polygon fill="#f4f4f4" points="223.579 408.111 191.018 408.111 191.838 416.669 223.86 416.669 223.579 408.111"/><rect width="8.062" height="246.368" x="259.544" y="95.848" fill="#2d1505"/><polygon fill="#303030" points="276.005 358.797 252.196 358.797 259.544 342.215 267.607 342.215 276.005 358.797"/><rect width="23.809" height="33.744" x="252.196" y="358.797" fill="#757575"/><path fill="#e8e377" d="M246.82105,448.48742s3.77923-3.48132,6.70813,0c0,0,3.77923-3.66455,7.3695,0,0,0,3.68474-3.75617,7.08605,0,0,0,2.9289-3.84778,6.80261,0,0,0,3.4013-3.93939,6.99157,0l-5.77382-55.94551H252.196Z"/><ellipse cx="170.04" cy="78.105" fill="#020202" rx="1.701" ry="2.809"/><ellipse cx="188.201" cy="78.105" fill="#020202" rx="1.701" ry="2.809"/><path fill="#cc546b" d="M181.96661,99.00428c-.467-1.01122-1.24457-1.64594-1.96527-1.49484-.918.1926-1.38784,1.57809-1.04953,3.09468.03332.14961.07817.291.12405.4313C180.23752,101.12526,181.21464,100.17853,181.96661,99.00428Z"/><path fill="#601f24" d="M158.26115,78.71605s3.77923-7.0848,2.01559-12.093c0,0,29.42865,3.41857,36.4832-6.96433,0,0-1.08443,22.72191,2.31687,18.08014,0,0,11.46366-22.47593-10.83379-35.54617S144.53,62.34772,158.26115,78.71605Z"/><path fill="#cec65f" d="M253.3905 445.57182c.03088-1.93781.12768-3.87061.1897-5.806l.29748-5.79791c.20911-3.86438.51074-7.7218.76172-11.583.33423-3.85491.624-7.71319 1.00012-11.56488l.58472-5.776c.23254-1.92242.42969-3.84759.69348-5.76764-.03 1.93787-.12683 3.87067-.18823 5.80616l-.29712 5.79791c-.21179 3.8642-.50989 7.72186-.76343 11.58288-.337 3.85468-.62317 7.71326-1.00207 11.56476l-.58435 5.776C253.85058 441.72654 253.65356 443.65171 253.3905 445.57182zM262.01977 399.27634c.06116 1.85053.05628 3.69916.08643 5.54883l-.02161 5.5456c-.01575 3.697-.11267 7.39166-.21 11.08624-.12183 3.69391-.24573 7.38769-.44959 11.0791l-.30944 5.537c-.141 1.84454-.24634 3.69012-.41858 5.53375-.062-1.85059-.05725-3.69922-.088-5.54889l.02124-5.54559c.01661-3.697.11316-7.39166.2118-11.08624.12317-3.69379.2467-7.38764.45141-11.079l.30908-5.537C261.74292 402.96555 261.84826 401.12 262.01977 399.27634zM266.55481 399.27634c.1715 1.84363.27685 3.68921.41711 5.53382l.3092 5.537c.20459 3.69141.32813 7.38526.45142 11.079.09863 3.69458.19507 7.38922.21167 11.08624l.02124 5.54559c-.03076 1.84967-.02588 3.6983-.08789 5.54889-.17236-1.84363-.27771-3.68921-.4187-5.53375l-.30945-5.537c-.20386-3.69141-.32776-7.38519-.44959-11.0791-.09729-3.69458-.19421-7.38922-.21-11.08624l-.02148-5.5456C266.49841 402.9755 266.49353 401.12687 266.55481 399.27634zM272.03466 399.27634c.2107 1.77265.35547 3.54883.535 5.32312l.42712 5.32886c.28333 3.55267.48548 7.10962.6875 10.66663.17737 3.55829.35266 7.1167.448 10.67932l.1394 5.34418c.00879 1.78338.053 3.56488.03052 5.34991-.21155-1.77264-.35632-3.54877-.5365-5.32306l-.42749-5.32886c-.28247-3.55273-.4851-7.10968-.68567-10.66668-.176-3.55835-.35168-7.11676-.44629-10.67945l-.13977-5.34411C272.05712 402.84281 272.01294 401.06132 272.03466 399.27634z"/><path fill="#d6d5d4" d="M241.34118,164.833c-1.15307,2.47415-2.39355,4.85009-3.62219,7.24365-1.25134,2.38144-2.45752,4.77542-3.85449,7.12524a34.41524,34.41524,0,0,1,2.93738-7.60089A32.87517,32.87517,0,0,1,241.34118,164.833Z"/><path fill="#f6b98a" d="M274.01667,133.85326a4.11449,4.11449,0,0,0-4.88606-3.92914c-2.51159.46454-5.155,1.60212-5.492,4.30992v7.42072a3.63013,3.63013,0,0,0,3.68474,3.57294h0l.189,5.40521S274.24576,151.188,274.01667,133.85326Z"/><path fill="#f27019" d="M149.84489,120.13421s7.00117,23.68874,29.69122,24.78811,28.55425-24.336,28.55425-24.336,10.46824,4.38024,17.87866,11.95926l-7.49217,120.1146H139.11306l3.02339-14.1696-4.55221-5.84623L131.53572,130.617A90.04866,90.04866,0,0,1,149.84489,120.13421Z"/><polygon fill="#dd6512" points="218.63 257.329 218.477 252.66 140.633 252.66 139.113 259.786 218.477 259.786 218.63 257.329"/><polygon fill="#f4f4f4" points="222.271 191.829 135.351 192.075 134.824 183.587 222.785 183.587 222.271 191.829"/><polygon fill="#f4f4f4" points="223.64 169.878 224.176 161.287 133.456 161.542 133.973 169.878 223.64 169.878 223.64 169.878"/><path fill="#f6b98a" d="M125.36134,248.14c6.6319,10.82783,19.69128,2.88724,19.69128,2.88724l2.7268,2.08984a13.166,13.166,0,0,0,9.85483,2.70656,13.794,13.794,0,0,0,6.5149-2.75665q.38371-.30113.74748-.62956c4.4652-4.03439,2.14755-7.44625-.86978-9.70995a17.24758,17.24758,0,0,0-9.05114-3.28283c-15.34972-1.16563-12.83926-.954-12.83926-.954Z"/><polygon fill="#d9dbdb" points="296.329 434.428 317.344 425.383 329.556 438.654 321.036 447.19 300.872 448.638 296.329 434.428"/><path fill="#bababa" d="M316.35034,429.153c-.25354,1.84809-.6106,3.66876-.99805,5.48145-.38342,1.81372-.82361,3.61242-1.2854,5.40545l-.13892.53949-.54992-.12634q-3.05731-.70221-6.08191-1.54278c-2.016-.5622-4.021-1.17084-5.99768-1.89972,2.094.23187,4.15954.584,6.21411.98248q3.08148.6,6.12988,1.33948l-.6886.413c.485-1.78686.99134-3.568,1.55457-5.33423C315.06762,432.644,315.65722,430.88486,316.35034,429.153Z"/><path fill="#bababa" d="M321.74633,438.929a39.04032,39.04032,0,0,1-4.066.926c-1.36181.253-2.7312.44153-4.10241.61383l.31286-.13825c-1.089.946-2.19616,1.87116-3.34424,2.74933a38.93627,38.93627,0,0,1-3.56811,2.49195,38.94865,38.94865,0,0,1,2.96387-3.187c1.02917-1.01483,2.09936-1.9826,3.1875-2.92962l.13708-.11933.17627-.0191c1.3739-.149,2.74988-.28168,4.1333-.35A39.02423,39.02423,0,0,1,321.74633,438.929Z"/><polygon fill="#bababa" points="313.936 439.495 317.628 444.299 313.085 440.291 313.936 439.495"/><polygon fill="#d9dbdb" points="282.879 444.704 286.702 422.719 304.855 420.171 307.493 431.772 297.608 448.875 282.879 444.704"/><path fill="#bababa" d="M289.39563,425.60416c1.44628,1.21387,2.81311,2.50183,4.15551,3.81244,1.346,1.30738,2.64759,2.65613,3.93421,4.01874l.402.42572-.43835.3971q-2.29632,2.08017-4.68274,4.06018c-1.59265,1.31805-3.217,2.6007-4.92248,3.79321,1.36767-1.56842,2.81652-3.04663,4.29711-4.48938q2.21961-2.16559,4.53687-4.22247l-.03638.82257c-1.26928-1.37891-2.52356-2.77173-3.73352-4.20594C291.69445,428.58543,290.50524,427.13181,289.39563,425.60416Z"/><path fill="#bababa" d="M300.78088,426.63779a37.46961,37.46961,0,0,1-1.4624,3.80036c-.537,1.24121-1.13111,2.45288-1.74024,3.6568l.05811-.353c.21387,1.40259.39831,2.80957.52221,4.22577a37.50718,37.50718,0,0,1,.18274,4.27734,37.48779,37.48779,0,0,1-1.09521-4.13879c-.302-1.38916-.54346-2.78754-.75562-4.19031l-.02856-.189.08679-.16431c.63-1.19312,1.275-2.37842,1.97717-3.53424A37.528,37.528,0,0,1,300.78088,426.63779Z"/><polygon fill="#bababa" points="296.978 433.253 303.125 432.932 297.149 434.405 296.978 433.253"/><ellipse cx="344.452" cy="338.624" fill="#57c984" rx="9.413" ry="9.127"/><path fill="#4fba75" d="M351.88108,342.20866a9.54217,9.54217,0,0,1-12.11313,4.331c.16045.08911.32349.17535.49119.25626a9.55093,9.55093,0,0,0,12.62017-4.10561,9.00075,9.00075,0,0,0-4.2341-12.23721c-.1677-.08091-.337-.155-.507-.22535A8.984,8.984,0,0,1,351.88108,342.20866Z"/><ellipse cx="344.617" cy="343.87" fill="#4fba75" rx=".779" ry="1.07" transform="rotate(-85.532 344.617 343.87)"/><ellipse cx="343.283" cy="338.212" fill="#4fba75" rx=".913" ry="1.23" transform="rotate(-65.979 343.283 338.212)"/><ellipse cx="340.741" cy="333.914" fill="#4fba75" rx=".975" ry="1.196" transform="rotate(-47.626 340.74 333.914)"/><ellipse cx="347.888" cy="333.594" fill="#4fba75" rx=".99" ry="1.22" transform="rotate(-4.078 347.888 333.594)"/><ellipse cx="349.303" cy="340.914" fill="#4fba75" rx=".749" ry=".727"/><ellipse cx="338.08" cy="342.223" fill="#4fba75" rx="1.04" ry="1.354" transform="rotate(-20.62 338.08 342.223)"/><ellipse cx="350.335" cy="336.514" fill="#4fba75" rx=".615" ry=".597"/><ellipse cx="338.566" cy="337.548" fill="#4fba75" rx=".615" ry=".597"/><path fill="#57c984" d="M344.03365 351.18187a6.14909 6.14909 0 01.93-3.44341l-2.85074-.2722s.95725.70037.7 3.70632zM332.97944 344.30956a6.65569 6.65569 0 013.574-.81272l-1.08466-2.57078s-.19094 1.14795-3.05154 2.33285zM352.67967 342.594a9.16575 9.16575 0 01-.47339.81618c.41223-.12866 1.5045-.274 3.64678.622l.3982-1.11891a6.43931 6.43931 0 01-2.9583-1.84843A9.00305 9.00305 0 01352.67967 342.594zM339.11886 331.10407a9.55082 9.55082 0 012.1-1.0485 6.44844 6.44844 0 01-1.90536-2.64718l-1.0738.563A5.90875 5.90875 0 01339.11886 331.10407zM344.6088 326.25705a6.1472 6.1472 0 01-.90166 3.4505l2.85288.25012s-.963-.69293-.73051-3.70077zM352.55332 328.89231a6.45911 6.45911 0 01-2.91869 2.15889l2.074 1.91586s-.3099-1.12329 1.80083-3.33892zM333.68641 331.96312a6.42276 6.42276 0 012.52909 2.58l1.73987-2.20654s-1.11812.42024-3.618-1.37477zM335.15567 337.18116a8.84924 8.84924 0 01-2.577-.00963l-.066 1.182a5.61521 5.61521 0 012.53091.59073A8.8017 8.8017 0 01335.15567 337.18116zM353.81175 337.67054a9.21751 9.21751 0 012.29788-.65983l-.3018-1.14694a5.30736 5.30736 0 01-2.3236.19711A8.91544 8.91544 0 01353.81175 337.67054zM349.40062 346.16815a9.53958 9.53958 0 01-1.47563.76115 8.8842 8.8842 0 011.1537 1.93485l1.07591-.55913A4.91037 4.91037 0 01349.40062 346.16815zM339.89661 346.60975a9.4436 9.4436 0 01-1.33057-.86307 3.52573 3.52573 0 01-.82264 2.03619l.66968.36756A3.90222 3.90222 0 01339.89661 346.60975z"/><path fill="#4fba75" d="M344.65527 351.2181a.323.323 0 01.18545.3015.33017.33017 0 01-.34549.313l-2.171-.071a.32442.32442 0 11.02246-.64815l2.17105.071A.33916.33916 0 01344.65527 351.2181zM332.34224 342.62665a.3296.3296 0 01.1448.13567l1.03468 1.85207a.31928.31928 0 01-.13477.4397.34042.34042 0 01-.45342-.13054l-1.03469-1.85208a.31929.31929 0 01.13478-.4397A.343.343 0 01332.34224 342.62665zM339.81967 326.70826a.32876.32876 0 01.14353.1334.31935.31935 0 01-.13108.44079l-1.90152 1.01871a.34.34 0 01-.45458-.12709.31935.31935 0 01.13108-.44079l1.90152-1.01872A.34366.34366 0 01339.81967 326.70826zM346.48593 325.76024a.32335.32335 0 01.18562.29145.32948.32948 0 01-.33534.32336l-2.17238-.00585a.32449.32449 0 11.00181-.64868l2.17238.00586A.34218.34218 0 01346.48593 325.76024zM352.38973 328.306a.34173.34173 0 01.03617.02029l1.81077 1.16373a.31836.31836 0 01.0941.44943.3404.3404 0 01-.46368.09115l-1.81076-1.16373a.31836.31836 0 01-.09411-.44943A.34082.34082 0 01352.38973 328.306zM355.94531 335.12681a.3254.3254 0 01.18084.23536l.36851 2.076a.32543.32543 0 01-.27291.37472.33354.33354 0 01-.38639-.26449l-.36851-2.076a.3254.3254 0 01.27291-.37471A.34132.34132 0 01355.94531 335.12681zM356.66216 342.17852a.32051.32051 0 01.16549.39966l-.73247 1.983a.33722.33722 0 01-.42764.19582.32.32 0 01-.20214-.41475l.73247-1.983a.33722.33722 0 01.42764-.19581A.31226.31226 0 01356.66216 342.17852zM350.76615 347.81857a.32826.32826 0 01.14861.14269.31963.31963 0 01-.1456.43637l-1.93417.95886a.339.339 0 01-.45-.14118.31962.31962 0 01.1456-.43637l1.93417-.95886A.34285.34285 0 01350.76615 347.81857zM332.89706 336.40621a.32178.32178 0 01.18019.34732l-.38188 2.0736a.33379.33379 0 01-.38806.26232.325.325 0 01-.27052-.37628l.38188-2.07361a.33376.33376 0 01.388-.26231A.344.344 0 01332.89706 336.40621zM334.68067 330.21819l.02428.01289a.319.319 0 01.11328.44547l-1.12356 1.8028a.34236.34236 0 01-.45926.1098.319.319 0 01-.11328-.44547l1.12356-1.8028A.34039.34039 0 01334.68067 330.21819zM337.51005 347.51581l.02643.01416 1.17758.70117a.31877.31877 0 01.11.44623.34068.34068 0 01-.46.10658l-1.17758-.70116a.31877.31877 0 01-.11-.44623A.34034.34034 0 01337.51005 347.51581z"/><ellipse cx="307.39" cy="368.097" fill="#57c984" rx="8.246" ry="7.996"/><path fill="#4fba75" d="M313.89849,371.23664a8.35935,8.35935,0,0,1-10.61164,3.79412c.14056.07807.28339.15362.4303.2245a8.36706,8.36706,0,0,0,11.05584-3.5967,7.88507,7.88507,0,0,0-3.70926-10.72035c-.14691-.07087-.29522-.13576-.4442-.19742A7.87041,7.87041,0,0,1,313.89849,371.23664Z"/><ellipse cx="307.535" cy="372.692" fill="#4fba75" rx=".682" ry=".938" transform="rotate(-85.532 307.535 372.692)"/><ellipse cx="306.366" cy="367.736" fill="#4fba75" rx=".8" ry="1.077" transform="rotate(-65.979 306.366 367.736)"/><ellipse cx="304.139" cy="363.97" fill="#4fba75" rx=".854" ry="1.048" transform="rotate(-47.626 304.14 363.97)"/><ellipse cx="310.4" cy="363.69" fill="#4fba75" rx=".867" ry="1.069" transform="rotate(-4.078 310.4 363.69)"/><ellipse cx="311.64" cy="370.102" fill="#4fba75" rx=".656" ry=".636"/><ellipse cx="301.808" cy="371.249" fill="#4fba75" rx=".911" ry="1.186" transform="rotate(-20.62 301.808 371.25)"/><ellipse cx="312.544" cy="366.248" fill="#4fba75" rx=".539" ry=".523"/><ellipse cx="302.234" cy="367.153" fill="#4fba75" rx=".539" ry=".523"/><path fill="#57c984" d="M307.0238 379.09758a5.38681 5.38681 0 01.81476-3.01659l-2.49738-.23846s.8386.61356.61325 3.2469zM297.33981 373.07712a5.83071 5.83071 0 013.131-.712l-.95022-2.25211s-.16727 1.00565-2.67328 2.04367zM314.59809 371.57418a8.02688 8.02688 0 01-.41471.715c.36114-.11271 1.318-.24 3.19474.54493l.34885-.98022a5.64113 5.64113 0 01-2.59161-1.61931A7.88675 7.88675 0 01314.59809 371.57418zM302.71822 361.50852a8.36688 8.36688 0 011.83968-.91853 5.64921 5.64921 0 01-1.66917-2.31905l-.9407.49318A5.17634 5.17634 0 01302.71822 361.50852zM307.52765 357.26231a5.38528 5.38528 0 01-.7899 3.0228l2.49926.21912s-.84362-.60705-.64-3.24205zM314.4874 359.57092a5.6585 5.6585 0 01-2.5569 1.89128l1.817 1.67838s-.27149-.98405 1.5776-2.925zM297.95914 362.26108a5.62667 5.62667 0 012.2156 2.2602l1.52421-1.933s-.97953.36815-3.16952-1.20436zM299.24628 366.83233a7.75279 7.75279 0 01-2.2576-.00844l-.05782 1.03544a4.91924 4.91924 0 012.21719.51751A7.71071 7.71071 0 01299.24628 366.83233zM315.58985 367.261a8.07522 8.07522 0 012.013-.578l-.26439-1.00477a4.64957 4.64957 0 01-2.03557.17268A7.8112 7.8112 0 01315.58985 367.261zM311.7255 374.70533a8.35713 8.35713 0 01-1.29272.66681 7.78259 7.78259 0 011.01069 1.695l.94254-.48982A4.30184 4.30184 0 01311.7255 374.70533zM303.39956 375.09219a8.27276 8.27276 0 01-1.16564-.75608 3.08878 3.08878 0 01-.72067 1.78379l.58667.322A3.41861 3.41861 0 01303.39956 375.09219z"/><path fill="#4fba75" d="M307.56836 379.12931a.283.283 0 01.16246.26414.28923.28923 0 01-.30266.27423l-1.90194-.06221a.28421.28421 0 11.01967-.5678l1.90194.06221A.29709.29709 0 01307.56836 379.12931zM296.78159 371.60282a.28873.28873 0 01.12685.11885l.90643 1.6225a.27971.27971 0 01-.11807.3852.29823.29823 0 01-.39721-.11437l-.90644-1.6225a.27971.27971 0 01.11808-.3852A.3005.3005 0 01296.78159 371.60282zM303.33216 357.6576a.288.288 0 01.12573.11686.27976.27976 0 01-.11482.38615l-1.66583.89244a.29786.29786 0 01-.39823-.11135.27976.27976 0 01.11483-.38614l1.66582-.89244A.301.301 0 01303.33216 357.6576zM309.17209 356.82708a.28328.28328 0 01.16262.25533.28865.28865 0 01-.29377.28328l-1.90311-.00513a.28427.28427 0 11.00159-.56827l1.9031.00513A.29975.29975 0 01309.17209 356.82708zM314.34409 359.05731a.29763.29763 0 01.03169.01776l1.58631 1.01949a.2789.2789 0 01.08244.39372.2982.2982 0 01-.4062.07985l-1.58632-1.01948a.2789.2789 0 01-.08244-.39372A.29858.29858 0 01314.34409 359.05731zM317.45894 365.03262a.28505.28505 0 01.15842.20619l.32283 1.81864a.28508.28508 0 01-.23908.32826.2922.2922 0 01-.33849-.2317l-.32283-1.81864a.28506.28506 0 01.23908-.32826A.299.299 0 01317.45894 365.03262zM318.08693 371.21023a.28079.28079 0 01.145.35013l-.64168 1.73719a.29541.29541 0 01-.37463.17154.28033.28033 0 01-.17708-.36334l.64168-1.73719a.2954.2954 0 01.37462-.17154A.2729.2729 0 01318.08693 371.21023zM312.92176 376.15117a.28751.28751 0 01.13019.125.28.28 0 01-.12755.38228l-1.69442.84a.297.297 0 01-.39425-.12368.28.28 0 01.12755-.38228l1.69443-.84A.30034.30034 0 01312.92176 376.15117zM297.26764 366.15343a.28188.28188 0 01.15785.30427l-.33454 1.81657a.2924.2924 0 01-.34.2298.28476.28476 0 01-.237-.32964l.33455-1.81657a.29239.29239 0 01.33995-.2298A.30142.30142 0 01297.26764 366.15343zM298.83016 360.73245l.02127.01129a.27947.27947 0 01.09924.39025l-.98429 1.57934a.29991.29991 0 01-.40233.09618.27945.27945 0 01-.09924-.39025l.98429-1.57933A.29818.29818 0 01298.83016 360.73245zM301.30883 375.88594l.02314.01241 1.03162.61425a.27926.27926 0 01.09634.39092.29845.29845 0 01-.403.09337l-1.03162-.61425a.27926.27926 0 01-.09634-.39092A.29818.29818 0 01301.30883 375.88594z"/><ellipse cx="366.322" cy="391.945" fill="#57c984" rx="14.023" ry="13.597"/><path fill="#4fba75" d="M377.38961,397.28441a14.21571,14.21571,0,0,1-18.04584,6.45217c.239.13276.48193.26124.73176.38177a14.22877,14.22877,0,0,0,18.80123-6.11644,13.40911,13.40911,0,0,0-6.30786-18.23071c-.24983-.12053-.502-.23088-.75539-.33572A13.38419,13.38419,0,0,1,377.38961,397.28441Z"/><ellipse cx="366.568" cy="399.76" fill="#4fba75" rx="1.16" ry="1.594" transform="rotate(-85.532 366.568 399.76)"/><ellipse cx="364.58" cy="391.331" fill="#4fba75" rx="1.361" ry="1.832" transform="rotate(-65.979 364.58 391.33)"/><ellipse cx="360.793" cy="384.927" fill="#4fba75" rx="1.452" ry="1.782" transform="rotate(-47.626 360.793 384.927)"/><ellipse cx="371.44" cy="384.451" fill="#4fba75" rx="1.475" ry="1.817" transform="rotate(-4.078 371.44 384.451)"/><ellipse cx="373.548" cy="395.355" fill="#4fba75" rx="1.116" ry="1.082"/><ellipse cx="356.829" cy="397.306" fill="#4fba75" rx="1.549" ry="2.017" transform="rotate(-20.62 356.829 397.306)"/><ellipse cx="375.086" cy="388.801" fill="#4fba75" rx=".917" ry=".889"/><ellipse cx="357.553" cy="390.34" fill="#4fba75" rx=".917" ry=".889"/><path fill="#57c984" d="M365.69871 410.65248s-.31406-1.81769 1.38556-5.12991l-4.247-.40552s1.42609 1.04339 1.04287 5.52158zM349.23041 400.41427s1.51025-1.119 5.32442-1.21077l-1.61591-3.82988s-.28446 1.71019-4.54611 3.47542zM378.57933 397.85841a13.65437 13.65437 0 01-.70524 1.21593c.61414-.19167 2.24138-.40817 5.43289.92669l.59323-1.66693s-1.80156-.28468-4.40721-2.75376A13.41247 13.41247 0 01378.57933 397.85841zM358.37677 380.741a14.229 14.229 0 013.12852-1.562 9.60692 9.60692 0 01-2.83855-3.94371l-1.59973.8387S358.14177 377.39886 358.37677 380.741zM366.55555 373.52008s.329 1.8152-1.34327 5.14047l4.25016.37263s-1.43464-1.03232-1.0883-5.51333zM378.3911 377.446s-.90623 1.62-4.34819 3.21625l3.08986 2.85421s-.46169-1.67345 2.68283-4.97424zM350.28363 382.02084s1.759.69834 3.76777 3.84362l2.592-3.28726s-1.66575.62607-5.39-2.0481zM352.4725 389.79456a13.18376 13.18376 0 01-3.83921-.01436l-.09833 1.76086a8.36533 8.36533 0 013.7705.88A13.112 13.112 0 01352.4725 389.79456zM380.26589 390.52361a13.7323 13.7323 0 013.42332-.983l-.44962-1.70868a7.90677 7.90677 0 01-3.46164.29365A13.28223 13.28223 0 01380.26589 390.52361zM373.69428 403.18315a14.21042 14.21042 0 01-2.19835 1.13395 13.23524 13.23524 0 011.71875 2.88249l1.60286-.833A7.31536 7.31536 0 01373.69428 403.18315zM359.53544 403.841a14.06808 14.06808 0 01-1.98224-1.28578 5.25271 5.25271 0 01-1.22556 3.03347l.99768.54758A5.8135 5.8135 0 01359.53544 403.841z"/><path fill="#4fba75" d="M366.62478 410.70644a.48128.48128 0 01.27628.44918.49187.49187 0 01-.5147.46637l-3.23439-.1058a.48332.48332 0 11.03346-.96559l3.23438.1058A.50523.50523 0 01366.62478 410.70644zM348.28112 397.90712a.49088.49088 0 01.21571.20211l1.54146 2.75917a.47567.47567 0 01-.20079.65506.50716.50716 0 01-.67549-.19449l-1.54146-2.75917a.47567.47567 0 01.2008-.65506A.511.511 0 01348.28112 397.90712zM359.42082 374.19228a.48974.48974 0 01.21383.19874.47575.47575 0 01-.19528.65667l-2.83285 1.51766a.50653.50653 0 01-.67721-.18935.47575.47575 0 01.19527-.65667l2.83285-1.51766A.51194.51194 0 01359.42082 374.19228zM369.352 372.77993a.48175.48175 0 01.27655.4342.49086.49086 0 01-.49959.48174l-3.23636-.00872a.48342.48342 0 11.0027-.96638l3.23636.00872A.51.51 0 01369.352 372.77993zM378.14739 376.57259a.5073.5073 0 01.05389.03021l2.69764 1.73371a.47427.47427 0 01.14019.66954.50712.50712 0 01-.69078.1358l-2.69764-1.7337a.47428.47428 0 01-.14019-.66955A.50775.50775 0 01378.14739 376.57259zM383.44441 386.734a.48474.48474 0 01.26941.35064l.549 3.09272a.4848.4848 0 01-.40657.55824.49691.49691 0 01-.57564-.394l-.549-3.09272a.48479.48479 0 01.40657-.55824A.50856.50856 0 01383.44441 386.734zM384.51235 397.23949a.47747.47747 0 01.24654.59541l-1.09122 2.95422a.50235.50235 0 01-.63707.29172.47672.47672 0 01-.30114-.61788l1.09121-2.95422a.50238.50238 0 01.63708-.29172A.46469.46469 0 01384.51235 397.23949zM375.72862 405.64191a.489.489 0 01.22139.21258.47616.47616 0 01-.2169.65009l-2.88149 1.42849a.505.505 0 01-.67044-.21032.47618.47618 0 01.21691-.6501l2.88148-1.42849A.51076.51076 0 01375.72862 405.64191zM349.10768 388.64a.47938.47938 0 01.26844.51743l-.56892 3.0892a.49723.49723 0 01-.57811.39079.48424.48424 0 01-.403-.56057l.56892-3.08921a.49725.49725 0 01.57812-.39079A.51242.51242 0 01349.10768 388.64zM351.76486 379.42129c.0122.00588.02426.0124.03617.0192a.47526.47526 0 01.16877.66365l-1.67386 2.68577a.51.51 0 01-.6842.16357.47525.47525 0 01-.16876-.66365l1.67385-2.68576A.5071.5071 0 01351.76486 379.42129zM355.98 405.19086c.01336.00645.02643.01346.03936.0211l1.75433 1.04458a.47491.47491 0 01.16384.66479.50754.50754 0 01-.68537.15879l-1.75433-1.04458a.47491.47491 0 01-.16384-.66479A.50706.50706 0 01355.98 405.19086z"/><ellipse cx="292.039" cy="346.236" fill="#3ca05d" rx="2.163" ry="2.098"/><ellipse cx="391.417" cy="357.003" fill="#3ca05d" rx="2.683" ry="2.601"/><ellipse cx="341.563" cy="373.405" fill="#3ca05d" rx="2.437" ry="2.363"/><ellipse cx="311.365" cy="319.505" fill="#3ca05d" rx="1.913" ry="1.855"/><ellipse cx="54.577" cy="264.82" fill="#57c984" rx="9.413" ry="9.127"/><path fill="#4fba75" d="M62.00637,268.40411a9.54217,9.54217,0,0,1-12.11312,4.331c.16044.08912.32349.17536.49118.25627a9.551,9.551,0,0,0,12.62018-4.10562,9.00076,9.00076,0,0,0-4.2341-12.23721c-.1677-.08091-.337-.155-.507-.22535A8.984,8.984,0,0,1,62.00637,268.40411Z"/><ellipse cx="54.743" cy="270.066" fill="#4fba75" rx=".779" ry="1.07" transform="rotate(-85.532 54.743 270.066)"/><ellipse cx="53.408" cy="264.408" fill="#4fba75" rx=".913" ry="1.23" transform="rotate(-65.979 53.408 264.408)"/><ellipse cx="50.866" cy="260.109" fill="#4fba75" rx=".975" ry="1.196" transform="rotate(-47.626 50.866 260.11)"/><ellipse cx="58.013" cy="259.79" fill="#4fba75" rx=".99" ry="1.22" transform="rotate(-4.078 58.013 259.79)"/><ellipse cx="59.428" cy="267.109" fill="#4fba75" rx=".749" ry=".727"/><ellipse cx="48.205" cy="268.419" fill="#4fba75" rx="1.04" ry="1.354" transform="rotate(-20.62 48.205 268.419)"/><ellipse cx="60.46" cy="262.709" fill="#4fba75" rx=".615" ry=".597"/><ellipse cx="48.691" cy="263.743" fill="#4fba75" rx=".615" ry=".597"/><path fill="#57c984" d="M54.159 277.37732a6.149 6.149 0 01.93-3.44342l-2.85073-.2722s.95725.70037.7 3.70632zM43.10474 270.505a6.65569 6.65569 0 013.574-.81272L45.594 267.1215s-.19094 1.148-3.05154 2.33285zM62.805 268.7894a9.16331 9.16331 0 01-.47339.81618c.41224-.12865 1.50451-.274 3.64678.622l.39821-1.11892a6.43936 6.43936 0 01-2.95831-1.84843A9.00305 9.00305 0 0162.805 268.7894zM49.24416 257.29951a9.551 9.551 0 012.1-1.0485 6.44845 6.44845 0 01-1.90536-2.64718l-1.0738.563A5.90885 5.90885 0 0149.24416 257.29951zM54.73409 252.45249a6.14722 6.14722 0 01-.90166 3.45051l2.85289.25012s-.963-.69294-.73051-3.70078zM62.67861 255.08776a6.45914 6.45914 0 01-2.91868 2.15888l2.074 1.91586s-.30991-1.12328 1.80082-3.33891zM43.8117 258.15856a6.42268 6.42268 0 012.52909 2.58l1.73988-2.20654s-1.11812.42024-3.618-1.37478zM45.281 263.37661a8.84932 8.84932 0 01-2.577-.00964l-.066 1.182a5.61524 5.61524 0 012.53092.59073A8.80085 8.80085 0 0145.281 263.37661zM63.93705 263.866a9.21781 9.21781 0 012.29788-.65983l-.30181-1.14693a5.30749 5.30749 0 01-2.32359.19711A8.91688 8.91688 0 0163.93705 263.866zM59.52591 272.36359a9.53866 9.53866 0 01-1.47562.76116 8.88388 8.88388 0 011.15369 1.93484l1.07591-.55913A4.91029 4.91029 0 0159.52591 272.36359zM50.0219 272.8052a9.44438 9.44438 0 01-1.33056-.86307 3.52589 3.52589 0 01-.82265 2.03619l.66969.36756A3.90223 3.90223 0 0150.0219 272.8052z"/><path fill="#4fba75" d="M54.78057 277.41354a.32308.32308 0 01.18545.30151.33017.33017 0 01-.3455.313l-2.17105-.071a.32442.32442 0 11.02246-.64814l2.17105.071A.339.339 0 0154.78057 277.41354zM42.46753 268.8221a.32947.32947 0 01.1448.13566l1.03469 1.85207a.3193.3193 0 01-.13478.43971.34044.34044 0 01-.45342-.13055l-1.03469-1.85207a.3193.3193 0 01.13478-.43971A.343.343 0 0142.46753 268.8221zM49.945 252.90371a.32862.32862 0 01.14352.1334.31934.31934 0 01-.13107.44078l-1.90153 1.01872a.34.34 0 01-.45457-.1271.31933.31933 0 01.13107-.44078L49.63392 252.91A.34363.34363 0 0149.945 252.90371zM56.61122 251.95568a.32335.32335 0 01.18562.29145.32947.32947 0 01-.33534.32336l-2.17238-.00585a.32449.32449 0 11.00181-.64867l2.17238.00585A.34226.34226 0 0156.61122 251.95568zM62.515 254.50147a.34.34 0 01.03618.02028l1.81076 1.16374a.31834.31834 0 01.09411.44942.34042.34042 0 01-.46369.09116l-1.81076-1.16374a.31835.31835 0 01-.09411-.44942A.34083.34083 0 0162.515 254.50147zM66.0706 261.32225a.32539.32539 0 01.18084.23537l.36851 2.076a.32541.32541 0 01-.27291.37471.33354.33354 0 01-.38639-.26449l-.36851-2.076a.32542.32542 0 01.27291-.37471A.34139.34139 0 0166.0706 261.32225zM66.78745 268.374a.32049.32049 0 01.16549.39966l-.73247 1.983a.3372.3372 0 01-.42763.19581.32.32 0 01-.20214-.41475l.73247-1.983a.33722.33722 0 01.42763-.19582A.31327.31327 0 0166.78745 268.374zM60.89144 274.014a.32826.32826 0 01.14861.14269.31963.31963 0 01-.14559.43638l-1.93418.95886a.339.339 0 01-.45-.14118.31963.31963 0 01.1456-.43637l1.93417-.95887A.34285.34285 0 0160.89144 274.014zM43.02236 262.60165a.32178.32178 0 01.18018.34732l-.38188 2.0736a.33376.33376 0 01-.388.26232.325.325 0 01-.27053-.37628l.38188-2.0736a.33377.33377 0 01.38806-.26232A.344.344 0 0143.02236 262.60165zM44.806 256.41363l.02427.01289a.319.319 0 01.11329.44547L43.82 258.67479a.34237.34237 0 01-.45927.1098.319.319 0 01-.11328-.44547l1.12356-1.8028A.3404.3404 0 0144.806 256.41363zM47.63535 273.71125l.02642.01416 1.17758.70117a.31878.31878 0 01.11.44623.34068.34068 0 01-.46005.10659l-1.17759-.70117a.31877.31877 0 01-.11-.44623A.34036.34036 0 0147.63535 273.71125z"/><ellipse cx="17.516" cy="294.292" fill="#57c984" rx="8.246" ry="7.996"/><path fill="#4fba75" d="M24.02378,297.43209a8.35937,8.35937,0,0,1-10.61164,3.79412c.14056.07807.28339.15362.4303.2245A8.36706,8.36706,0,0,0,24.89828,297.854,7.88505,7.88505,0,0,0,21.189,287.13366c-.14691-.07088-.29522-.13577-.4442-.19742A7.87041,7.87041,0,0,1,24.02378,297.43209Z"/><ellipse cx="17.66" cy="298.888" fill="#4fba75" rx=".682" ry=".938" transform="rotate(-85.532 17.66 298.888)"/><ellipse cx="16.491" cy="293.931" fill="#4fba75" rx=".8" ry="1.077" transform="rotate(-65.979 16.491 293.931)"/><ellipse cx="14.264" cy="290.166" fill="#4fba75" rx=".854" ry="1.048" transform="rotate(-47.626 14.264 290.166)"/><ellipse cx="20.525" cy="289.886" fill="#4fba75" rx=".867" ry="1.069" transform="rotate(-4.078 20.525 289.886)"/><ellipse cx="21.765" cy="296.298" fill="#4fba75" rx=".656" ry=".636"/><ellipse cx="11.933" cy="297.445" fill="#4fba75" rx=".911" ry="1.186" transform="rotate(-20.62 11.933 297.445)"/><ellipse cx="22.669" cy="292.443" fill="#4fba75" rx=".539" ry=".523"/><ellipse cx="12.359" cy="293.349" fill="#4fba75" rx=".539" ry=".523"/><path fill="#57c984" d="M17.14909 305.293a5.38678 5.38678 0 01.81476-3.01658l-2.49737-.23846s.83859.61355.61324 3.2469zM7.4651 299.27257a5.83071 5.83071 0 013.131-.712l-.95021-2.25212s-.16728 1.00566-2.67329 2.04368zM24.72338 297.76962a8.02688 8.02688 0 01-.41471.715c.36114-.1127 1.318-.24 3.19475.54494l.34884-.98022A5.64123 5.64123 0 0125.26065 296.43 7.88592 7.88592 0 0124.72338 297.76962zM12.84351 287.704a8.36695 8.36695 0 011.83969-.91853 5.64913 5.64913 0 01-1.66918-2.31905l-.9407.49319A5.17632 5.17632 0 0112.84351 287.704zM17.65294 283.45776a5.38527 5.38527 0 01-.78989 3.02279l2.49925.21912s-.84362-.607-.64-3.24205zM24.6127 285.76637a5.6585 5.6585 0 01-2.5569 1.89128l1.81695 1.67838s-.27149-.984 1.5776-2.925zM8.08444 288.45653A5.62653 5.62653 0 0110.3 290.71672l1.52421-1.933s-.97952.36815-3.16952-1.20436zM9.37158 293.02777a7.75251 7.75251 0 01-2.25761-.00844l-.05782 1.03545a4.91915 4.91915 0 012.2172.5175A7.71 7.71 0 019.37158 293.02777zM25.71514 293.45648a8.07538 8.07538 0 012.013-.578l-.2644-1.00477a4.64957 4.64957 0 01-2.03557.17268A7.81023 7.81023 0 0125.71514 293.45648zM21.85079 300.90077a8.35661 8.35661 0 01-1.29271.66681 7.78309 7.78309 0 011.01069 1.695l.94254-.48982A4.30167 4.30167 0 0121.85079 300.90077zM13.52485 301.28764a8.27417 8.27417 0 01-1.16563-.75609 3.08875 3.08875 0 01-.72068 1.7838l.58668.322A3.41854 3.41854 0 0113.52485 301.28764z"/><path fill="#4fba75" d="M17.69365 305.32475a.283.283 0 01.16247.26414.28924.28924 0 01-.30267.27424l-1.90194-.06222a.28421.28421 0 11.01968-.5678l1.90194.06221A.29724.29724 0 0117.69365 305.32475zM6.90688 297.79826a.28868.28868 0 01.12685.11885l.90644 1.6225a.27972.27972 0 01-.11808.3852.29823.29823 0 01-.39721-.11436l-.90643-1.6225a.27971.27971 0 01.11807-.3852A.30047.30047 0 016.90688 297.79826zM13.45745 283.853a.288.288 0 01.12574.11686.27977.27977 0 01-.11483.38615l-1.66582.89244a.29786.29786 0 01-.39823-.11134.27976.27976 0 01.11483-.38615l1.66582-.89244A.30107.30107 0 0113.45745 283.853zM19.29739 283.02253a.28325.28325 0 01.16261.25532.28863.28863 0 01-.29377.28328l-1.9031-.00513a.28426.28426 0 11.00158-.56826l1.90311.00512A.29983.29983 0 0119.29739 283.02253zM24.46939 285.25275a.29758.29758 0 01.03168.01777L26.08739 286.29a.2789.2789 0 01.08244.39372.29822.29822 0 01-.40621.07986l-1.58631-1.01949a.2789.2789 0 01-.08244-.39372A.29858.29858 0 0124.46939 285.25275zM27.58423 291.22806a.28508.28508 0 01.15843.20619l.32283 1.81864a.28508.28508 0 01-.23909.32826.29219.29219 0 01-.33849-.2317l-.32283-1.81863a.28508.28508 0 01.23908-.32827A.29911.29911 0 0127.58423 291.22806zM28.21222 297.40568a.28077.28077 0 01.145.35012l-.64168 1.73719a.29541.29541 0 01-.37462.17155.28034.28034 0 01-.17709-.36334l.64168-1.7372a.29541.29541 0 01.37463-.17154A.27179.27179 0 0128.21222 297.40568zM23.04705 302.34661a.28761.28761 0 01.13019.125.28.28 0 01-.12754.38228l-1.69443.84a.297.297 0 01-.39424-.12368.28.28 0 01.12755-.38228l1.69442-.84A.30034.30034 0 0123.04705 302.34661zM7.39293 292.34888a.28189.28189 0 01.15786.30426l-.33455 1.81657a.2924.2924 0 01-.33995.2298.28475.28475 0 01-.237-.32964l.33455-1.81657a.2924.2924 0 01.33995-.2298A.30144.30144 0 017.39293 292.34888zM8.95546 286.92789l.02126.0113a.27945.27945 0 01.09924.39025l-.98428 1.57933a.29994.29994 0 01-.40234.09619.27947.27947 0 01-.09924-.39025l.98429-1.57934A.29821.29821 0 018.95546 286.92789zM11.43412 302.08138l.02315.01241 1.03161.61425a.27925.27925 0 01.09634.39092.29844.29844 0 01-.403.09338l-1.03161-.61426a.27925.27925 0 01-.09635-.39091A.29817.29817 0 0111.43412 302.08138z"/><ellipse cx="76.448" cy="318.14" fill="#57c984" rx="14.023" ry="13.597"/><path fill="#4fba75" d="M87.5149,323.47985A14.21569,14.21569,0,0,1,69.46906,329.932c.239.13276.48193.26124.73176.38178a14.22877,14.22877,0,0,0,18.80123-6.11645,13.4091,13.4091,0,0,0-6.30786-18.2307c-.24983-.12054-.502-.23089-.75539-.33573A13.38418,13.38418,0,0,1,87.5149,323.47985Z"/><ellipse cx="76.694" cy="325.955" fill="#4fba75" rx="1.16" ry="1.594" transform="rotate(-85.532 76.694 325.955)"/><ellipse cx="74.705" cy="317.526" fill="#4fba75" rx="1.361" ry="1.832" transform="rotate(-65.979 74.705 317.526)"/><ellipse cx="70.918" cy="311.123" fill="#4fba75" rx="1.452" ry="1.782" transform="rotate(-47.626 70.918 311.123)"/><ellipse cx="81.566" cy="310.647" fill="#4fba75" rx="1.475" ry="1.817" transform="rotate(-4.077 81.576 310.648)"/><ellipse cx="83.673" cy="321.551" fill="#4fba75" rx="1.116" ry="1.082"/><ellipse cx="66.954" cy="323.501" fill="#4fba75" rx="1.549" ry="2.017" transform="rotate(-20.62 66.954 323.501)"/><ellipse cx="85.211" cy="314.996" fill="#4fba75" rx=".917" ry=".889"/><ellipse cx="67.679" cy="316.536" fill="#4fba75" rx=".917" ry=".889"/><path fill="#57c984" d="M75.824 336.84792s-.314-1.81769 1.38556-5.12991l-4.24695-.40552s1.42608 1.0434 1.04286 5.52158zM59.3557 326.60971s1.51025-1.119 5.32442-1.21077l-1.61591-3.82988s-.28446 1.71019-4.54611 3.47542zM88.70462 324.05385a13.65051 13.65051 0 01-.70524 1.21593c.61414-.19167 2.24138-.40817 5.43289.9267l.59323-1.66694s-1.80155-.28468-4.40721-2.75375A13.41155 13.41155 0 0188.70462 324.05385zM68.50206 306.93649a14.22922 14.22922 0 013.12852-1.562 9.60676 9.60676 0 01-2.83855-3.94371l-1.59973.8387S68.26706 303.5943 68.50206 306.93649zM76.68084 299.71552s.329 1.8152-1.34327 5.14048l4.25016.37262s-1.43463-1.03232-1.0883-5.51333zM88.5164 303.64147s-.90624 1.62-4.34819 3.21625l3.08985 2.85421s-.46169-1.67344 2.68283-4.97424zM60.40893 308.21628s1.759.69835 3.76777 3.84362l2.592-3.28725s-1.66575.62606-5.39-2.04811zM62.5978 315.99a13.18375 13.18375 0 01-3.83922-.01435l-.09833 1.76085a8.36551 8.36551 0 013.7705.88005A13.11132 13.11132 0 0162.5978 315.99zM90.39118 316.71906a13.73234 13.73234 0 013.42333-.983l-.44962-1.70867a7.907 7.907 0 01-3.46164.29365A13.2829 13.2829 0 0190.39118 316.71906zM83.81958 329.37859a14.21047 14.21047 0 01-2.19835 1.134A13.23568 13.23568 0 0183.34 333.395l1.60285-.833A7.31538 7.31538 0 0183.81958 329.37859zM69.66074 330.03649a14.07 14.07 0 01-1.98225-1.28578 5.25266 5.25266 0 01-1.22556 3.03347l.99768.54758A5.81341 5.81341 0 0169.66074 330.03649z"/><path fill="#4fba75" d="M76.75007 336.90189a.48128.48128 0 01.27629.44918.49187.49187 0 01-.51471.46636l-3.23438-.1058a.48332.48332 0 11.03346-.96559l3.23438.1058A.50515.50515 0 0176.75007 336.90189zM58.40641 324.10256a.4909.4909 0 01.21572.20211l1.54145 2.75917a.47568.47568 0 01-.20079.65507.50717.50717 0 01-.67549-.19449l-1.54145-2.75917a.47568.47568 0 01.20079-.65507A.511.511 0 0158.40641 324.10256zM69.54611 300.38772a.4898.4898 0 01.21383.19874.47576.47576 0 01-.19527.65667l-2.83285 1.51766a.50654.50654 0 01-.67722-.18935.47576.47576 0 01.19527-.65667l2.83285-1.51766A.512.512 0 0169.54611 300.38772zM79.47734 298.97538a.48174.48174 0 01.27654.4342.49085.49085 0 01-.49959.48173l-3.23636-.00872a.48342.48342 0 11.0027-.96638l3.23636.00873A.50986.50986 0 0179.47734 298.97538zM88.27269 302.768a.5055.5055 0 01.05388.03022l2.69764 1.7337a.47428.47428 0 01.1402.66954.50713.50713 0 01-.69079.13581L87.776 303.60359a.47427.47427 0 01-.1402-.66954A.50776.50776 0 0188.27269 302.768zM93.5697 312.92947a.48478.48478 0 01.26941.35064l.549 3.09272a.4848.4848 0 01-.40658.55824.4969.4969 0 01-.57563-.394l-.549-3.09272a.48479.48479 0 01.40658-.55823A.50851.50851 0 0193.5697 312.92947zM94.63764 323.43494a.47748.47748 0 01.24655.59541L93.793 326.98457a.50238.50238 0 01-.63708.29172.47673.47673 0 01-.30114-.61789l1.09122-2.95422a.50237.50237 0 01.63708-.29172A.46529.46529 0 0194.63764 323.43494zM85.85391 331.83735a.489.489 0 01.2214.21258.47618.47618 0 01-.21691.6501l-2.88148 1.42849a.505.505 0 01-.67044-.21033.47617.47617 0 01.2169-.6501l2.88149-1.42848A.51077.51077 0 0185.85391 331.83735zM59.233 314.83549a.47937.47937 0 01.26843.51743l-.56891 3.0892a.49725.49725 0 01-.57812.3908.48424.48424 0 01-.403-.56058l.56892-3.0892a.49723.49723 0 01.57811-.39079A.5126.5126 0 0159.233 314.83549zM61.89016 305.61673c.0122.00589.02425.0124.03616.0192a.47524.47524 0 01.16877.66365l-1.67385 2.68577a.51.51 0 01-.6842.16357.47523.47523 0 01-.16877-.66364l1.67385-2.68577A.50712.50712 0 0161.89016 305.61673zM66.1053 331.3863c.01336.00645.02643.01346.03936.0211L67.899 332.452a.4749.4749 0 01.16383.66478.50753.50753 0 01-.68537.15879L65.62313 332.231a.4749.4749 0 01-.16384-.66478A.50707.50707 0 0166.1053 331.3863z"/><ellipse cx="2.164" cy="272.431" fill="#3ca05d" rx="2.163" ry="2.098"/><ellipse cx="101.542" cy="283.199" fill="#3ca05d" rx="2.683" ry="2.601"/><ellipse cx="51.689" cy="299.6" fill="#3ca05d" rx="2.437" ry="2.363"/><ellipse cx="21.49" cy="245.701" fill="#3ca05d" rx="1.913" ry="1.855"/><line x1="18.485" x2="333.911" y1="448.638" y2="448.638" fill="none" stroke="#139da0" stroke-linecap="round" stroke-linejoin="round" stroke-width="2.33"/></g></g></svg>